{"title":"Four Weddings and a Funeral (1994) Hugh Grant (Opt.MULTISUBS)","uid":4530496,"size":754584237,"categoryP":"video","categoryS":"movies","magnet":"?xt=urn:btih:ac490053549188c691306bfea04bb62b9a9a7ab1&amp;dn=Four+Weddings+and+a+Funeral+%281994%29+Hugh+Grant+%28Opt.MULTISUBS%29&amp;tr=udp%3A%2F%2Ftracker.openbittorrent.com%3A80&amp;tr=udp%3A%2F%2Fopen.demonii.com%3A1337&amp;tr=udp%3A%2F%2Ftracker.coppersurfer.tk%3A6969&amp;tr=udp%3A%2F%2Fexodus.desync.com%3A6969","seeders":12,"leechers":5,"uploader":"Kuthumi","files":-1,"time":1227539593,"description":" &lt;a href=&quot;http://www.imdb.com/title/tt0109831/&quot; rel=&quot;nofollow&quot; target=&quot;_NEW&quot;&gt;http://www.imdb.com/title/tt0109831/&lt;/a&gt;\n\nWith Andie MacDowell (Bad Girls), Simon Callow, John Hannah\n\nOptional subtitles in separate idx/sub files:\nCroatian (Hrvatski), Czech, Danish, Dutch, English, Finnish, French, Greek, Hungarian, Norwegian, Polish, Portuguese, Romanian, Spanish, Slovenian, Swedish.\n(Tip: Click the blue Number of files at upper left and check the contents of this package to confirm that your language is included.)\n\nThis gem of a classic comedy should be seen at least once a year. I made a new rip with widescreen and optional multisubs for those of you who would join me.\n\nMy new ripping procedure now produces decent quality for such a long film compressed into just 700 MiB. I enclose a sample for ye weak in faith. \n\nWidescreen DVDrip XviD 2-pass 720x368, really great stereo sound AC3.\nBurn tested, runs well in both my standalone DivX players.\n\nMediaInfo analysis:\nFormat/Info                      : Audio Video Interleave\nFile size                        : 695 MiB\nDuration                         : 1h 53mn\nOveral bit rate                  : 860 Kbps\n\nVideo\nFormat                           : MPEG-4 Visual\nFormat profile                   : Streaming Video@L1\nFormat settings, BVOP            : Yes\nFormat settings, QPel            : No\nFormat settings, GMC             : No warppoints\nFormat settings, Matrix          : Default\nMuxing mode                      : Packet Bitstream\nCodec ID                         : XVID\nCodec ID/Hint                    : XviD\nDuration                         : 1h 53mn\nBit rate                         : 722 Kbps\nWidth                            : 720 pixels\nHeight                           : 368 pixels\nDisplay aspect ratio             : 1.957\nFrame rate                       : 25.000 fps\nResolution                       : 8 bits\nColorimetry                      : 4:2:0\nScan type                        : Progressive\nBits/(Pixel*Frame)               : 0.109\nStream size                      : 583 MiB\nWriting library                  : XviD 1.2.0.dev47 (UTC 2006-11-01)\n\nAudio\nFormat                           : MPEG Audio\nFormat version                   : Version 1\nFormat profile                   : Layer 3\nCodec ID                         : 55\nCodec ID/Hint                    : MP3\nDuration                         : 1h 53mn\nBit rate mode                    : Constant\nBit rate                         : 128 Kbps\nMinimum bit rate                 : 128 Kbps\nChannel(s)                       : 2 channels\nSampling rate                    : 48.0 KHz\nResolution                       : 16 bits\nStream size                      : 103 MiB\nWriting library                  : LAME3.97 \nEncoding settings                : CBR\n\nSource: PAL retail (note that PAL/NTSC will give no problems for avi files).","torrent":{"xt":"urn:btih:ac490053549188c691306bfea04bb62b9a9a7ab1","amp;dn":"Four+Weddings+and+a+Funeral+%281994%29+Hugh+Grant+%28Opt.MULTISUBS%29","amp;tr":["udp%3A%2F%2Ftracker.openbittorrent.com%3A80","udp%3A%2F%2Fopen.demonii.com%3A1337","udp%3A%2F%2Ftracker.coppersurfer.tk%3A6969","udp%3A%2F%2Fexodus.desync.com%3A6969"],"infoHash":"ac490053549188c691306bfea04bb62b9a9a7ab1","infoHashBuffer":{"type":"Buffer","data":[172,73,0,83,84,145,136,198,145,48,107,254,160,75,182,43,154,154,122,177]},"announce":[],"urlList":[]}}